<svg xmlns="http://www.w3.org/2000/svg" xmlns:xlink="http://www.w3.org/1999/xlink" width="512" height="512" x="0" y="0" viewBox="0 0 128 128" style="enable-background:new 0 0 512 512" xml:space="preserve" class=""><g><path d="M88 116h-5V62.77a9.05 9.05 0 0 0 5.86-4.39 32.29 32.29 0 0 1 15.74 10.83 8.21 8.21 0 0 0 4.7 2.9 7.1 7.1 0 0 0 1.29.11 7.25 7.25 0 0 0 6.18-3.43 2 2 0 1 0-3.39-2.12 3.3 3.3 0 0 1-3.38 1.5 4.27 4.27 0 0 1-2.28-1.46A36.19 36.19 0 0 0 90 54.54V54a9 9 0 0 0-7-8.77V42a2 2 0 0 0-4 0v3.23A9 9 0 0 0 72.23 52a33 33 0 0 0-17.73 5.26 4.25 4.25 0 0 1-2.64.59 3.27 3.27 0 0 1-2.66-2.57 2 2 0 1 0-3.91.82 7.25 7.25 0 0 0 5.87 5.69 6.38 6.38 0 0 0 1.15.1 8.53 8.53 0 0 0 4.26-1.21A29 29 0 0 1 72.23 56 9 9 0 0 0 79 62.77V116h-5a10 10 0 0 0-10 10 2 2 0 0 0 2 2h30a2 2 0 0 0 2-2 10 10 0 0 0-10-10zM76 54a5 5 0 1 1 5 5 5 5 0 0 1-5-5zm-7.66 70a6 6 0 0 1 5.66-4h14a6 6 0 0 1 5.66 4z" fill="#51525f" opacity="1" data-original="#000000" class=""></path><path d="M35.23 96.93c2.9 5.51 9.29 9.07 16.27 9.07s13.37-3.56 16.27-9.07a2 2 0 0 0 .08-1.65 1.77 1.77 0 0 0-.06-.17l-14-28A2 2 0 0 0 52 66a2 2 0 0 0-1.79 1.06l-15 28a1 1 0 0 0 0 .1 2 2 0 0 0 .02 1.77zM51.5 102A15.21 15.21 0 0 1 41 98h21a15.21 15.21 0 0 1-10.5 4zm.44-29.65L62.76 94H40.34zM127.8 105.16a1 1 0 0 0 0-.1l-15-28A2 2 0 0 0 111 76a2 2 0 0 0-1.76 1.11l-14 28a.45.45 0 0 0 0 .11 2 2 0 0 0 0 1.71c2.9 5.51 9.29 9.07 16.27 9.07s13.37-3.56 16.27-9.07a2 2 0 0 0 .02-1.77zm-16.74-22.81 11.6 21.65h-22.42zm.44 29.65a15.21 15.21 0 0 1-10.5-4h21a15.21 15.21 0 0 1-10.5 4z" fill="#51525f" opacity="1" data-original="#000000" class=""></path><path d="M74.32 106.22a2 2 0 0 0 .44-2.79A2 2 0 0 0 72 103c-3.37 2.47-6.79 4.69-10.11 6.83-6.11 4-11.34 7.35-14.07 10.93-2.72-3.58-8-7-14.06-10.93-8.27-5.35-17.63-11.41-23.38-19.52C2.07 78.65 4.07 30.06 4.58 20c5.27-.14 20.18-.83 29.26-4.34 6.58-2.55 11.53-7.55 13.94-10.39 2.42 2.84 7.37 7.84 13.95 10.39 9.08 3.51 24 4.2 29.25 4.34.21 4.08.67 14.43.58 26a2 2 0 0 0 2 2 2 2 0 0 0 2-2c.11-15.06-.68-28-.69-28.16a2 2 0 0 0-2-1.88c-.2 0-19.48-.14-29.72-4.1C55 8.73 49.48.93 49.42.85A2 2 0 0 0 47.79 0a2 2 0 0 0-1.63.85c-.06.08-5.61 7.88-13.75 11C22.15 15.84 2.87 16 2.68 16a2 2 0 0 0-2 1.88c-.14 2.45-3.61 60.64 6.39 74.74 6.2 8.73 15.91 15 24.47 20.56 7.33 4.74 14.24 9.22 14.24 12.82a2 2 0 0 0 4 0c0-3.6 6.92-8.08 14.25-12.82 3.36-2.18 6.83-4.43 10.29-6.96z" fill="#51525f" opacity="1" data-original="#000000" class=""></path></g></svg>