<svg xmlns="http://www.w3.org/2000/svg" id="Capa_2" data-name="Capa 2" viewBox="0 0 194.71 178.72"><defs><style>      .cls-1 {        fill: none;        stroke: #51525f;        stroke-linecap: round;        stroke-linejoin: round;        stroke-width: 4px;      }    </style></defs><g id="Capa_1-2" data-name="Capa 1"><g><path class="cls-1" d="M118.08,147.1H2v15.91c0,2.36.44,4.71,1.44,6.84,1.4,3,4.12,6.27,9.27,6.27l122.35.6s-16.97-.93-16.97-15.31v-14.31Z"></path><path class="cls-1" d="M135.28,176.72s20.12.16,20.12-29.59V18.63s3.46-16.63,17.74-16.63H37.7s-14.97,4.73-14.97,17.82v127.29"></path><path class="cls-1" d="M155.4,31.84h37.31v-11.51s-1.6-18.33-18.66-18.33"></path><g><line class="cls-1" x1="47.6" y1="97.35" x2="126.38" y2="97.35"></line><line class="cls-1" x1="47.6" y1="113.94" x2="126.38" y2="113.94"></line><line class="cls-1" x1="47.6" y1="64.19" x2="126.38" y2="64.19"></line><line class="cls-1" x1="47.6" y1="47.6" x2="126.38" y2="47.6"></line><line class="cls-1" x1="47.6" y1="80.77" x2="126.38" y2="80.77"></line></g></g></g></svg>