<svg xmlns="http://www.w3.org/2000/svg" id="Capa_1" viewBox="0 0 984.5 255.95"><defs><style>      .st0 {        fill: none;        stroke: #fff;        stroke-miterlimit: 10;        stroke-width: 5px;      }      .st1 {        fill: #fff;      }    </style></defs><g><g><path class="st0" d="M61.78,211.23v-97.33c0-34.13,27.67-61.79,61.79-61.79h0c34.13,0,61.79,27.67,61.79,61.79v3.67c0,22.75-18.44,41.2-41.2,41.2h0l11.28,3.44c17.77,5.42,29.91,21.81,29.91,40.39v8.63"></path><path class="st0" d="M187.41,44.74c.51,4.71-1.04,9.59-4.65,13.2l-59.19,59.19-59.19-59.19c-3.61-3.61-5.16-8.49-4.65-13.2"></path></g><rect class="st0" x="15.06" y="19.48" width="217.02" height="217.02"></rect></g><g><path class="st1" d="M270.89,110.07v-63.8h22.15c5.85,0,10.31,1.38,13.37,4.15,3.06,2.77,4.58,6.99,4.58,12.67,0,3.4-.64,6.29-1.92,8.67-1.28,2.38-2.83,4.22-4.63,5.51-1.8,1.3-3.47,2.03-5,2.21,1.56.12,3.09.54,4.61,1.28,1.51.74,2.77,1.87,3.78,3.4,1.01,1.53,1.51,3.58,1.51,6.14v14.53c0,1.24.1,2.34.3,3.31.2.97.43,1.61.69,1.92h-7.44c-.2-.37-.4-1.02-.61-1.95s-.3-2.02-.3-3.29v-13.62c0-2.83-.89-4.93-2.68-6.31-1.79-1.38-4.31-2.08-7.57-2.08h-15.7l2.08-2.81v30.06h-7.22ZM278.11,79.41l-2.08-3.07h15.79c2.13,0,4.07-.53,5.82-1.58,1.74-1.05,3.14-2.52,4.2-4.41,1.05-1.89,1.58-4.1,1.58-6.64,0-3.95-1.04-6.76-3.11-8.43-2.08-1.67-5.08-2.51-9-2.51h-15.44l2.25-3.2v29.85Z"></path><path class="st1" d="M323.96,90.05v-6.57h35.51l-1.3,2.16v-.95c0-2.65-.56-5.08-1.67-7.29-1.11-2.21-2.76-3.97-4.95-5.3-2.19-1.33-4.9-1.99-8.13-1.99s-6.13.69-8.61,2.08c-2.48,1.38-4.41,3.34-5.8,5.86-1.38,2.52-2.08,5.53-2.08,9.02s.67,6.6,2.01,9.17c1.34,2.57,3.25,4.54,5.73,5.93,2.48,1.38,5.42,2.08,8.82,2.08,2.42,0,4.53-.25,6.31-.76,1.79-.5,3.27-1.18,4.43-2.03,1.17-.85,2.05-1.78,2.66-2.79.61-1.01.97-2.02,1.08-3.03h7.35c-.14,1.85-.72,3.68-1.73,5.49-1.01,1.82-2.44,3.47-4.28,4.95-1.85,1.49-4.11,2.67-6.79,3.57s-5.77,1.34-9.26,1.34c-4.61,0-8.68-1.01-12.2-3.03-3.52-2.02-6.28-4.81-8.28-8.39-2-3.58-3.01-7.68-3.01-12.33s1.01-8.83,3.03-12.39c2.02-3.56,4.8-6.35,8.35-8.37,3.55-2.02,7.6-3.03,12.15-3.03s8.67,1.01,12.07,3.03c3.4,2.02,6.03,4.78,7.87,8.28,1.85,3.5,2.77,7.49,2.77,11.96,0,.46-.02,1.07-.04,1.82-.03.75-.07,1.25-.13,1.51h-41.91Z"></path><path class="st1" d="M376.21,110.07v-45.94h7.35v45.94h-7.35ZM404.45,110.07v-28.24c0-1.12-.08-2.34-.24-3.65-.16-1.31-.53-2.55-1.1-3.72-.58-1.17-1.48-2.13-2.7-2.88-1.23-.75-2.92-1.12-5.08-1.12s-4.04.43-5.54,1.28c-1.5.85-2.71,1.97-3.63,3.35-.92,1.38-1.59,2.91-1.99,4.56-.4,1.66-.61,3.29-.61,4.91l-4.15-1.69c0-3.46.72-6.66,2.16-9.6,1.44-2.94,3.47-5.31,6.08-7.12,2.61-1.8,5.67-2.7,9.19-2.7s6.33.71,8.52,2.12c2.19,1.41,3.81,3.36,4.84,5.84s1.56,5.33,1.56,8.56v30.1h-7.31ZM432.61,110.07v-28.42c0-1.12-.07-2.34-.22-3.63-.15-1.3-.5-2.52-1.08-3.65-.58-1.14-1.49-2.08-2.75-2.81s-3.01-1.1-5.26-1.1-4.07.42-5.56,1.25c-1.49.84-2.67,1.93-3.55,3.29-.88,1.36-1.51,2.82-1.88,4.39-.38,1.57-.56,3.08-.56,4.52l-4.15-1.6c0-3.29.7-6.37,2.1-9.23,1.4-2.87,3.39-5.19,5.97-6.96,2.58-1.77,5.64-2.66,9.19-2.66,3.32,0,6.09.65,8.33,1.95,2.23,1.3,3.92,3.12,5.06,5.47,1.14,2.35,1.71,5.14,1.71,8.37v30.84h-7.35Z"></path><path class="st1" d="M453.85,90.05v-6.57h35.51l-1.3,2.16v-.95c0-2.65-.56-5.08-1.67-7.29-1.11-2.21-2.76-3.97-4.95-5.3-2.19-1.33-4.9-1.99-8.13-1.99s-6.13.69-8.61,2.08c-2.48,1.38-4.41,3.34-5.8,5.86-1.38,2.52-2.08,5.53-2.08,9.02s.67,6.6,2.01,9.17c1.34,2.57,3.25,4.54,5.73,5.93,2.48,1.38,5.42,2.08,8.82,2.08,2.42,0,4.53-.25,6.31-.76,1.79-.5,3.27-1.18,4.43-2.03,1.17-.85,2.05-1.78,2.66-2.79.61-1.01.96-2.02,1.08-3.03h7.35c-.14,1.85-.72,3.68-1.73,5.49-1.01,1.82-2.44,3.47-4.28,4.95-1.85,1.49-4.11,2.67-6.79,3.57s-5.77,1.34-9.26,1.34c-4.61,0-8.68-1.01-12.2-3.03-3.52-2.02-6.28-4.81-8.28-8.39-2-3.58-3.01-7.68-3.01-12.33s1.01-8.83,3.03-12.39c2.02-3.56,4.8-6.35,8.35-8.37,3.55-2.02,7.6-3.03,12.15-3.03s8.67,1.01,12.07,3.03c3.4,2.02,6.03,4.78,7.87,8.28s2.77,7.49,2.77,11.96c0,.46-.01,1.07-.04,1.82-.03.75-.07,1.25-.13,1.51h-41.91Z"></path><path class="st1" d="M525.04,110.94c-3.78,0-7.24-.92-10.38-2.75-3.14-1.83-5.65-4.53-7.53-8.09-1.88-3.56-2.81-7.91-2.81-13.04s.95-9.33,2.85-12.85,4.43-6.19,7.57-8.02c3.14-1.83,6.57-2.75,10.29-2.75s6.87.84,9.97,2.53c3.1,1.69,5.6,4.03,7.5,7.03,1.9,3,2.85,6.47,2.85,10.42v.52l-5.28.22v-.56c0-2.51-.66-4.77-1.97-6.79-1.31-2.02-3.04-3.63-5.17-4.82-2.13-1.2-4.43-1.8-6.88-1.8-4.09,0-7.48,1.38-10.16,4.13-2.68,2.75-4.02,7-4.02,12.74s1.35,9.96,4.04,12.74,6.08,4.17,10.14,4.17c2.57,0,4.91-.62,7.03-1.86,2.12-1.24,3.81-2.9,5.08-5,1.27-2.09,1.9-4.43,1.9-7.03l5.28.13c0,3.92-.91,7.45-2.72,10.58-1.82,3.13-4.26,5.6-7.33,7.42-3.07,1.82-6.5,2.73-10.27,2.73ZM540.1,110.07V42.47h7.4v67.6h-7.4Z"></path><path class="st1" d="M563.24,53.58c-1.36,0-2.53-.38-3.52-1.15-1-.76-1.49-1.81-1.49-3.14s.5-2.33,1.49-3.09c.99-.76,2.17-1.15,3.52-1.15s2.52.38,3.5,1.15c.98.76,1.47,1.79,1.47,3.09s-.49,2.37-1.47,3.14c-.98.76-2.15,1.15-3.5,1.15ZM559.56,110.07v-45.94h7.27v45.94h-7.27Z"></path><path class="st1" d="M601,110.9c-4.61,0-8.69-1.03-12.22-3.09-3.53-2.06-6.3-4.89-8.3-8.48-2-3.59-3.01-7.68-3.01-12.26s1-8.65,3.01-12.2c2-3.55,4.77-6.33,8.3-8.35,3.53-2.02,7.61-3.03,12.22-3.03s8.69,1.01,12.22,3.03c3.53,2.02,6.3,4.8,8.3,8.35,2,3.55,3.01,7.61,3.01,12.2s-1,8.67-3.01,12.26c-2,3.59-4.77,6.42-8.3,8.48-3.53,2.06-7.61,3.09-12.22,3.09ZM601,104.15c3.17,0,5.97-.71,8.39-2.12,2.42-1.41,4.32-3.4,5.69-5.97,1.37-2.57,2.05-5.56,2.05-9s-.69-6.41-2.05-8.93c-1.37-2.52-3.27-4.47-5.69-5.84-2.42-1.37-5.22-2.05-8.39-2.05s-5.93.69-8.37,2.05c-2.44,1.37-4.34,3.32-5.71,5.84-1.37,2.52-2.05,5.5-2.05,8.93s.69,6.43,2.05,9c1.37,2.57,3.27,4.56,5.71,5.97,2.44,1.41,5.23,2.12,8.37,2.12Z"></path><path class="st1" d="M652.25,110.94c-2.77,0-5.33-.3-7.68-.89-2.35-.59-4.4-1.46-6.14-2.6-1.75-1.14-3.1-2.54-4.07-4.22-.97-1.67-1.45-3.59-1.45-5.75v-1.34h7.4v.95c0,2.34,1.08,4.12,3.24,5.34,2.16,1.23,5.12,1.84,8.87,1.84,2.31,0,4.37-.23,6.19-.69,1.82-.46,3.25-1.17,4.3-2.12,1.05-.95,1.58-2.15,1.58-3.59,0-2.39-1.12-4.1-3.35-5.13-2.24-1.02-5.57-1.91-10.01-2.66-2.33-.4-4.56-.93-6.66-1.58-2.1-.65-3.97-1.49-5.6-2.53-1.63-1.04-2.91-2.33-3.85-3.87-.94-1.54-1.41-3.4-1.41-5.56,0-2.8.83-5.17,2.49-7.12s3.9-3.43,6.73-4.46c2.83-1.02,5.97-1.54,9.43-1.54s6.43.53,9.26,1.6c2.83,1.07,5.1,2.62,6.81,4.65,1.72,2.03,2.57,4.53,2.57,7.5v.87h-7.35v-.65c0-1.67-.53-3.05-1.6-4.13-1.07-1.08-2.45-1.89-4.15-2.42-1.7-.53-3.52-.8-5.45-.8-1.82,0-3.61.19-5.36.58-1.76.39-3.21,1.03-4.37,1.92-1.15.89-1.73,2.12-1.73,3.68s.54,2.8,1.62,3.74c1.08.94,2.61,1.7,4.58,2.29,1.97.59,4.3,1.13,6.99,1.62,2.39.43,4.66.97,6.79,1.62,2.13.65,4.01,1.48,5.64,2.49,1.63,1.01,2.91,2.29,3.85,3.83.94,1.54,1.41,3.42,1.41,5.64s-.51,4.21-1.54,5.88-2.44,3.07-4.24,4.2c-1.8,1.12-3.88,1.97-6.23,2.53-2.35.56-4.85.84-7.5.84Z"></path><path class="st1" d="M746.5,46.27h12.72v63.8h-7.01v-57.92l.22.09-16.26,57.83h-10.55l-16.35-57.87.22-.09v57.96h-7.01v-63.8h12.72l15.66,57.87h-.09l15.74-57.87Z"></path><path class="st1" d="M793.12,110.9c-4.61,0-8.69-1.03-12.22-3.09-3.53-2.06-6.3-4.89-8.3-8.48-2-3.59-3.01-7.68-3.01-12.26s1-8.65,3.01-12.2c2-3.55,4.77-6.33,8.3-8.35,3.53-2.02,7.61-3.03,12.22-3.03s8.69,1.01,12.22,3.03c3.53,2.02,6.3,4.8,8.3,8.35,2,3.55,3.01,7.61,3.01,12.2s-1,8.67-3.01,12.26c-2,3.59-4.77,6.42-8.3,8.48-3.53,2.06-7.61,3.09-12.22,3.09ZM793.12,104.15c3.17,0,5.97-.71,8.39-2.12,2.42-1.41,4.32-3.4,5.69-5.97,1.37-2.57,2.05-5.56,2.05-9s-.69-6.41-2.05-8.93c-1.37-2.52-3.27-4.47-5.69-5.84-2.42-1.37-5.22-2.05-8.39-2.05s-5.93.69-8.37,2.05c-2.44,1.37-4.34,3.32-5.71,5.84-1.37,2.52-2.05,5.5-2.05,8.93s.69,6.43,2.05,9c1.37,2.57,3.27,4.56,5.71,5.97,2.44,1.41,5.23,2.12,8.37,2.12Z"></path><path class="st1" d="M826.82,110.07v-45.94h7.35v14.1l-2.42-.87c.17-1.7.61-3.38,1.3-5.04.69-1.66,1.65-3.16,2.88-4.5s2.76-2.41,4.61-3.2c1.84-.79,4.01-1.19,6.49-1.19,1.84,0,3.35.15,4.52.45s1.9.54,2.18.71l-1.9,7.22c-.29-.2-.87-.46-1.75-.78-.88-.32-2.13-.48-3.74-.48-2.39,0-4.38.43-5.95,1.3-1.57.87-2.81,2.01-3.72,3.44-.91,1.43-1.55,2.98-1.92,4.65-.38,1.67-.56,3.33-.56,4.97v25.13h-7.35Z"></path><path class="st1" d="M864.45,53.58c-1.36,0-2.53-.38-3.52-1.15-1-.76-1.49-1.81-1.49-3.14s.5-2.33,1.49-3.09c.99-.76,2.17-1.15,3.52-1.15s2.52.38,3.5,1.15c.98.76,1.47,1.79,1.47,3.09s-.49,2.37-1.47,3.14c-.98.76-2.15,1.15-3.5,1.15ZM860.77,110.07v-45.94h7.27v45.94h-7.27Z"></path><path class="st1" d="M888.37,42.47v67.6h-7.27V42.47h7.27Z"></path><path class="st1" d="M908.44,42.47v67.6h-7.27V42.47h7.27Z"></path><path class="st1" d="M942.35,110.9c-4.61,0-8.69-1.03-12.22-3.09-3.53-2.06-6.3-4.89-8.3-8.48-2-3.59-3.01-7.68-3.01-12.26s1-8.65,3.01-12.2c2-3.55,4.77-6.33,8.3-8.35,3.53-2.02,7.61-3.03,12.22-3.03s8.69,1.01,12.22,3.03c3.53,2.02,6.3,4.8,8.3,8.35,2,3.55,3.01,7.61,3.01,12.2s-1,8.67-3.01,12.26c-2,3.59-4.77,6.42-8.3,8.48-3.53,2.06-7.61,3.09-12.22,3.09ZM942.35,104.15c3.17,0,5.97-.71,8.39-2.12,2.42-1.41,4.32-3.4,5.69-5.97,1.37-2.57,2.05-5.56,2.05-9s-.69-6.41-2.05-8.93c-1.37-2.52-3.27-4.47-5.69-5.84-2.42-1.37-5.22-2.05-8.39-2.05s-5.93.69-8.37,2.05c-2.44,1.37-4.34,3.32-5.71,5.84-1.37,2.52-2.05,5.5-2.05,8.93s.69,6.43,2.05,9c1.37,2.57,3.27,4.56,5.71,5.97,2.44,1.41,5.23,2.12,8.37,2.12Z"></path></g><g><path class="st1" d="M276.99,191.68l-4.61,13.97h-5.93l15.09-44.42h6.92l15.16,44.42h-6.13l-4.75-13.97h-15.75ZM291.55,187.2l-4.35-12.79c-.99-2.9-1.65-5.54-2.31-8.11h-.13c-.66,2.64-1.38,5.34-2.24,8.04l-4.35,12.85h13.38Z"></path><path class="st1" d="M313.43,161.83c2.5-.53,6.46-.92,10.48-.92,5.73,0,9.42.99,12.19,3.23,2.31,1.71,3.69,4.35,3.69,7.84,0,4.28-2.83,8.04-7.51,9.75v.13c4.22,1.05,9.16,4.55,9.16,11.14,0,3.82-1.52,6.72-3.76,8.9-3.1,2.83-8.11,4.15-15.36,4.15-3.95,0-6.99-.26-8.9-.53v-43.69ZM319.17,180.02h5.21c6.06,0,9.62-3.16,9.62-7.45,0-5.21-3.95-7.25-9.75-7.25-2.64,0-4.15.2-5.07.4v14.3ZM319.17,201.31c1.12.2,2.77.26,4.81.26,5.93,0,11.4-2.17,11.4-8.63,0-6.06-5.21-8.57-11.47-8.57h-4.75v16.94Z"></path><path class="st1" d="M390.41,182.99c0,15.29-9.29,23.4-20.63,23.4s-19.97-9.09-19.97-22.54c0-14.1,8.77-23.33,20.63-23.33s19.97,9.29,19.97,22.47ZM355.95,183.71c0,9.49,5.14,17.99,14.17,17.99s14.24-8.37,14.24-18.45c0-8.83-4.61-18.06-14.17-18.06s-14.23,8.77-14.23,18.52Z"></path><path class="st1" d="M434.97,203.68c-2.57.92-7.65,2.44-13.64,2.44-6.72,0-12.26-1.71-16.61-5.87-3.82-3.69-6.19-9.62-6.19-16.54.07-13.25,9.16-22.93,24.05-22.93,5.14,0,9.16,1.12,11.07,2.04l-1.38,4.68c-2.37-1.05-5.34-1.91-9.82-1.91-10.81,0-17.86,6.72-17.86,17.86s6.79,17.93,17.13,17.93c3.76,0,6.33-.53,7.64-1.19v-13.25h-9.03v-4.61h14.63v21.35Z"></path><path class="st1" d="M454.22,191.68l-4.61,13.97h-5.93l15.09-44.42h6.92l15.16,44.42h-6.13l-4.74-13.97h-15.75ZM468.78,187.2l-4.35-12.79c-.99-2.9-1.65-5.54-2.31-8.11h-.13c-.66,2.64-1.38,5.34-2.24,8.04l-4.35,12.85h13.38Z"></path><path class="st1" d="M490.67,161.83c3.49-.53,7.65-.92,12.19-.92,8.24,0,14.1,1.91,17.99,5.54,3.95,3.62,6.26,8.76,6.26,15.95s-2.24,13.18-6.39,17.27c-4.15,4.15-11.01,6.39-19.64,6.39-4.09,0-7.51-.2-10.41-.53v-43.69ZM496.4,201.11c1.45.26,3.56.33,5.8.33,12.26,0,18.91-6.85,18.91-18.85.07-10.48-5.87-17.13-17.99-17.13-2.97,0-5.21.26-6.72.59v35.06Z"></path><path class="st1" d="M575.82,182.99c0,15.29-9.29,23.4-20.63,23.4s-19.97-9.09-19.97-22.54c0-14.1,8.77-23.33,20.63-23.33s19.97,9.29,19.97,22.47ZM541.35,183.71c0,9.49,5.14,17.99,14.17,17.99s14.23-8.37,14.23-18.45c0-8.83-4.61-18.06-14.17-18.06s-14.24,8.77-14.24,18.52Z"></path><path class="st1" d="M585.77,198.67c2.57,1.58,6.33,2.9,10.28,2.9,5.87,0,9.29-3.1,9.29-7.58,0-4.15-2.37-6.52-8.37-8.83-7.25-2.57-11.73-6.33-11.73-12.59,0-6.92,5.73-12.06,14.37-12.06,4.55,0,7.84,1.05,9.82,2.17l-1.58,4.68c-1.45-.79-4.42-2.11-8.44-2.11-6.06,0-8.37,3.62-8.37,6.66,0,4.15,2.7,6.19,8.83,8.57,7.51,2.9,11.33,6.52,11.33,13.05,0,6.85-5.07,12.79-15.55,12.79-4.28,0-8.96-1.25-11.34-2.83l1.45-4.81Z"></path></g></svg>