<svg xmlns="http://www.w3.org/2000/svg" id="Capa_2" viewBox="0 0 197.23 151.23"><defs><style>      .st0 {        stroke-width: 4px;      }      .st0, .st1 {        fill: none;        stroke: #fff;        stroke-linecap: round;        stroke-linejoin: round;      }      .st1 {        stroke-width: 4px;      }    </style></defs><g id="Capa_1-2"><g><path class="st1" d="M151.46,92.29l9.04,9.04c3.59,3.59,3.59,9.41,0,13h0c-3.59,3.59-9.41,3.59-13,0l-6.3-6.3"></path><path class="st1" d="M138.46,105.29l14.51,14.51c3.59,3.59,3.59,9.41,0,13h0c-3.59,3.59-9.41,3.59-13,0l-14.51-14.51"></path><path class="st1" d="M121.82,114.63l15.42,15.42c3.59,3.59,3.59,9.41,0,13h0c-3.59,3.59-9.41,3.59-13,0l-15.42-15.42"></path><path class="st1" d="M105.17,123.98l8.66,8.66c3.59,3.59,3.44,9.56-.34,13.34h0c-3.78,3.78-9.75,3.93-13.34.34l-6.5-6.5"></path><line class="st1" x1="106.27" y1="47.1" x2="151.46" y2="92.29"></line><path class="st1" d="M40.6,86.77L2,48.17,42.62,8.08l18.54,18.54s19.2-4.98,38.3.62"></path><path class="st0" d="M81.86,148.61l-9.98-9.98c-.83-.83-.83-2.18,0-3.01l12.57-12.57c3.59-3.59,9.41-3.59,13,0h0c3.59,3.59,3.59,9.41,0,13l-12.57,12.57c-.83.83-2.18.83-3.01,0h0Z"></path><path class="st0" d="M66.79,135.56l-9.98-9.98c-.83-.83-.83-2.18,0-3.01l16.06-16.06c3.59-3.59,9.41-3.59,13,0h0c3.59,3.59,3.59,9.41,0,13l-16.06,16.06c-.83.83-2.18.83-3.01,0h0Z"></path><path class="st0" d="M40.8,109.55l-9.98-9.98c-.83-.83-.83-2.18,0-3.01l16.06-16.06c3.59-3.59,9.41-3.59,13,0h0c3.59,3.59,3.59,9.41,0,13l-16.06,16.06c-.83.83-2.18.83-3.01,0Z"></path><path class="st0" d="M51.41,124.95l-9.98-9.98c-.83-.83-.83-2.18,0-3.01l20.83-20.83c3.59-3.59,9.41-3.59,13,0h0c3.59,3.59,3.59,9.41,0,13l-20.83,20.83c-.83.83-2.18.83-3.01,0Z"></path><path class="st1" d="M148.72,86.82l46.51-46.51L156.93,2l-33.06,33.97s-22-15.16-34.31-5.59c-5.98,4.65-11.97,8.5-16.54,11.22-4.56,2.72-6.3,8.43-4.11,13.26h0c2.48,5.46,9.04,7.71,14.36,4.93l21.64-11.33"></path></g></g></svg>