<svg xmlns="http://www.w3.org/2000/svg" id="Capa_2" data-name="Capa 2" viewBox="0 0 136.24 190.56"><defs><style>      .cls-1 {        fill: none;        stroke: #51525f;        stroke-linecap: round;        stroke-linejoin: round;        stroke-width: 4px;      }    </style></defs><g id="Capa_1-2" data-name="Capa 1"><g><path class="cls-1" d="M116.84,33.99c3.42-6.19-1.4-14.67-10.8-14.67-12.64,0-13.48,12.64-13.48,12.64-1.69,9.27,6.74,16.21,16.65,16.21,13.69,0,25.03-9.44,25.03-23.09S123.49,2,109.84,2H26.4C12.75,2,2,11.44,2,25.09s11.34,24.03,25.03,24.03c9.91,0,18.33-7.41,16.65-16.68,0,0-.84-12.87-13.48-12.87-9.41,0-14.22,8.36-10.8,14.55"></path><line class="cls-1" x1="46.01" y1="31.02" x2="91.61" y2="31.02"></line><polyline class="cls-1" points="108.19 51.75 108.19 147.1 25.28 147.1 25.28 51.75"></polyline><line class="cls-1" x1="66.74" y1="55.9" x2="66.74" y2="130.52"></line><line class="cls-1" x1="87.46" y1="55.9" x2="87.46" y2="130.52"></line><line class="cls-1" x1="46.01" y1="55.9" x2="46.01" y2="130.52"></line><rect class="cls-1" x="16.99" y="147.1" width="103.65" height="20.73"></rect><rect class="cls-1" x="4.55" y="167.83" width="128.52" height="20.73"></rect></g></g></svg>