<?xml version="1.0" encoding="UTF-8"?>
<svg id="Capa_2" data-name="Capa 2" xmlns="http://www.w3.org/2000/svg" viewBox="0 0 168.71 98.64">
  <defs>
    <style>
      .cls-1 {
        fill: #162542;
      }
    </style>
  </defs>
  <g id="Capa_1-2" data-name="Capa 1">
    <g>
      <path class="cls-1" d="M9.27,70.57c.31-.58.47-1.28.47-2.11,0-1.38-.37-2.4-1.11-3.08s-1.82-1.01-3.24-1.01H0v15.49h1.75v-6.62h3.31c.79,0,1.4.17,1.84.5.43.34.65.85.65,1.53v3.31c0,.31.02.57.07.8.05.22.1.38.15.47h1.81c-.06-.08-.12-.23-.17-.47-.05-.24-.07-.5-.07-.8v-3.53c0-.62-.12-1.12-.37-1.49-.24-.37-.55-.65-.92-.82-.37-.18-.74-.28-1.12-.31.37-.04.77-.22,1.21-.54s.81-.76,1.12-1.34ZM7.51,70.23c-.26.46-.6.82-1.02,1.07-.42.26-.89.38-1.41.38H1.75v-5.72h3.2c.95,0,1.68.2,2.18.61.5.41.76,1.09.76,2.05,0,.62-.13,1.15-.38,1.61Z"/>
      <path class="cls-1" d="M20.52,69.29c-.83-.49-1.8-.74-2.93-.74s-2.09.25-2.95.74c-.86.49-1.54,1.17-2.03,2.03-.49.87-.74,1.87-.74,3.01s.24,2.12.73,2.99c.49.87,1.16,1.55,2.01,2.04.85.49,1.84.74,2.96.74.85,0,1.6-.11,2.25-.33.65-.22,1.2-.5,1.65-.87.45-.36.79-.76,1.04-1.2.25-.44.38-.88.42-1.33h-1.79c-.03.25-.12.49-.26.73-.15.25-.36.47-.65.68-.28.21-.64.37-1.08.49-.43.12-.94.18-1.53.18-.83,0-1.54-.17-2.14-.5-.6-.34-1.07-.82-1.39-1.44-.23-.44-.37-.94-.44-1.5h9.4c.01-.06.02-.19.03-.37,0-.18,0-.33,0-.44,0-1.08-.22-2.05-.67-2.9-.45-.85-1.08-1.52-1.91-2.01ZM15.52,70.67c.6-.34,1.3-.5,2.09-.5s1.44.16,1.97.48c.53.32.93.75,1.2,1.29.23.45.34.95.37,1.48h-7.47c.08-.49.22-.93.43-1.32.34-.61.8-1.09,1.41-1.42Z"/>
      <path class="cls-1" d="M39.26,74.95v4.92h1.79v-7.49c0-.78-.14-1.46-.41-2.03-.28-.57-.69-1.01-1.23-1.33-.54-.31-1.22-.47-2.02-.47-.86,0-1.61.22-2.23.65-.54.37-.96.87-1.28,1.44-.02-.05-.02-.1-.04-.15-.25-.6-.64-1.08-1.18-1.42-.53-.34-1.22-.51-2.07-.51s-1.6.22-2.23.66c-.39.27-.71.61-.99.99v-1.47h-1.79v11.15h1.79v-6.2c0-.39.05-.79.15-1.19s.26-.77.48-1.11c.22-.34.52-.61.88-.81.36-.21.81-.31,1.34-.31s.94.09,1.23.27c.3.18.52.41.66.7.14.28.23.58.27.9.04.32.06.61.06.89v6.86h1.78v-6.35c0-.35.04-.72.14-1.1.09-.38.24-.74.46-1.07s.5-.59.86-.8.81-.3,1.35-.3.97.09,1.28.27c.3.18.53.41.67.68.14.28.23.57.26.89.04.31.05.61.05.88v1.97Z"/>
      <path class="cls-1" d="M54.04,77.7c.25-.44.38-.88.42-1.33h-1.79c-.03.25-.12.49-.26.73-.15.25-.36.47-.65.68-.28.21-.64.37-1.08.49-.43.12-.94.18-1.53.18-.83,0-1.54-.17-2.14-.5-.6-.34-1.07-.82-1.39-1.44-.23-.44-.37-.94-.44-1.5h9.4c.01-.06.02-.19.03-.37,0-.18,0-.33,0-.44,0-1.08-.22-2.05-.67-2.9-.45-.85-1.08-1.52-1.91-2.01s-1.8-.74-2.93-.74-2.09.25-2.95.74c-.86.49-1.54,1.17-2.03,2.03-.49.87-.74,1.87-.74,3.01s.24,2.12.73,2.99c.49.87,1.16,1.55,2.01,2.04.85.49,1.84.74,2.96.74.85,0,1.6-.11,2.25-.33.65-.22,1.2-.5,1.65-.87.45-.36.79-.76,1.04-1.2ZM47.05,70.67c.6-.34,1.3-.5,2.09-.5s1.44.16,1.97.48c.53.32.93.75,1.2,1.29.23.45.34.95.37,1.48h-7.47c.08-.49.22-.93.43-1.32.34-.61.8-1.09,1.41-1.42Z"/>
      <path class="cls-1" d="M65.35,78.46v1.41h1.8v-16.41h-1.8v6.67c-.36-.38-.76-.71-1.23-.96-.75-.41-1.56-.61-2.42-.61-.9,0-1.74.22-2.5.67-.76.44-1.38,1.09-1.84,1.95-.46.85-.69,1.89-.69,3.12s.23,2.3.68,3.17c.46.86,1.06,1.52,1.83,1.96.76.45,1.6.67,2.52.67s1.75-.22,2.49-.66c.44-.26.82-.59,1.16-.96ZM61.95,78.39c-.99,0-1.81-.34-2.46-1.01-.65-.67-.98-1.71-.98-3.09s.33-2.42.98-3.09c.65-.67,1.47-1,2.47-1,.59,0,1.15.15,1.67.44.52.29.94.68,1.26,1.17.32.49.48,1.04.48,1.65v1.58c0,.63-.15,1.2-.46,1.71-.31.51-.72.91-1.23,1.21-.51.3-1.08.45-1.71.45Z"/>
      <rect class="cls-1" x="70.08" y="68.72" width="1.76" height="11.15"/>
      <path class="cls-1" d="M70.97,64.09c-.33,0-.61.09-.86.28-.24.19-.36.44-.36.75s.12.58.36.76c.24.19.53.28.86.28s.61-.09.85-.28c.24-.19.36-.44.36-.76s-.12-.57-.36-.75c-.24-.19-.52-.28-.85-.28Z"/>
      <path class="cls-1" d="M85.12,71.33c-.49-.86-1.16-1.54-2.02-2.03s-1.85-.74-2.97-.74-2.11.25-2.97.74-1.53,1.17-2.02,2.03c-.49.86-.73,1.85-.73,2.96s.24,2.11.73,2.98c.49.87,1.16,1.56,2.02,2.06.86.5,1.85.75,2.97.75s2.11-.25,2.97-.75c.86-.5,1.53-1.19,2.02-2.06.49-.87.73-1.86.73-2.98s-.24-2.1-.73-2.96ZM83.55,76.47c-.33.62-.79,1.11-1.38,1.45s-1.27.51-2.04.51-1.44-.17-2.03-.51c-.59-.34-1.05-.83-1.39-1.45-.33-.62-.5-1.35-.5-2.18s.17-1.56.5-2.17c.33-.61.79-1.08,1.39-1.42.59-.33,1.27-.5,2.03-.5s1.45.17,2.04.5c.59.33,1.05.81,1.38,1.42s.5,1.33.5,2.17-.17,1.56-.5,2.18Z"/>
      <path class="cls-1" d="M96.04,74.52c-.4-.24-.85-.45-1.37-.6-.52-.16-1.07-.29-1.65-.39-.65-.12-1.22-.25-1.7-.39-.48-.14-.85-.33-1.11-.56s-.39-.53-.39-.91.14-.68.42-.89c.28-.22.63-.37,1.06-.47.43-.09.86-.14,1.3-.14.47,0,.91.07,1.32.19.41.13.75.33,1.01.59.26.26.39.6.39,1v.16h1.78v-.21c0-.72-.21-1.33-.62-1.82-.42-.49-.97-.87-1.65-1.13-.69-.26-1.43-.39-2.25-.39s-1.6.12-2.29.37c-.69.25-1.23.61-1.63,1.08-.4.47-.6,1.05-.6,1.73,0,.53.11.97.34,1.35.23.37.54.69.93.94s.85.46,1.36.61,1.05.29,1.62.38c1.08.18,1.89.4,2.43.65.54.25.81.66.81,1.24,0,.35-.13.64-.38.87-.26.23-.6.4-1.04.51-.44.11-.94.17-1.5.17-.91,0-1.63-.15-2.15-.45-.52-.3-.79-.73-.79-1.3v-.23h-1.8v.33c0,.53.12.99.35,1.4.23.41.56.75.99,1.02.42.28.92.49,1.49.63.57.14,1.19.21,1.86.21s1.25-.07,1.82-.21c.57-.14,1.07-.34,1.51-.61.44-.27.78-.61,1.03-1.02.25-.41.37-.88.37-1.43s-.11-1-.34-1.37c-.23-.37-.54-.68-.93-.93Z"/>
      <polygon class="cls-1" points="110.39 79.87 112.95 79.87 116.84 66.02 116.84 79.87 118.54 79.87 118.54 64.38 115.46 64.38 111.65 78.4 107.86 64.38 104.77 64.38 104.77 79.87 106.47 79.87 106.47 66.01 110.39 79.87"/>
      <path class="cls-1" d="M129.74,69.3c-.86-.49-1.85-.74-2.97-.74s-2.11.25-2.97.74-1.53,1.17-2.02,2.03c-.49.86-.73,1.85-.73,2.96s.24,2.11.73,2.98c.49.87,1.16,1.56,2.02,2.06.86.5,1.85.75,2.97.75s2.11-.25,2.97-.75c.86-.5,1.53-1.19,2.02-2.06.49-.87.73-1.86.73-2.98s-.24-2.1-.73-2.96-1.16-1.54-2.02-2.03ZM130.19,76.47c-.33.62-.79,1.11-1.38,1.45s-1.27.51-2.04.51-1.44-.17-2.03-.51c-.59-.34-1.05-.83-1.39-1.45-.33-.62-.5-1.35-.5-2.18s.17-1.56.5-2.17c.33-.61.79-1.08,1.39-1.42.59-.33,1.27-.5,2.03-.5s1.45.17,2.04.5c.59.33,1.05.81,1.38,1.42s.5,1.33.5,2.17-.17,1.56-.5,2.18Z"/>
      <path class="cls-1" d="M139.86,68.55c-.6,0-1.13.1-1.58.29-.45.19-.82.45-1.12.78-.16.18-.3.37-.42.57v-1.47h-1.79v11.15h1.79v-6.1c0-.4.04-.8.14-1.21.09-.41.25-.78.47-1.13s.52-.62.9-.83c.38-.21.86-.32,1.44-.32.39,0,.7.04.91.12.21.08.36.14.43.19l.46-1.75c-.07-.04-.25-.1-.53-.17-.28-.07-.65-.11-1.1-.11Z"/>
      <path class="cls-1" d="M144.09,64.09c-.33,0-.61.09-.86.28-.24.19-.36.44-.36.75s.12.58.36.76c.24.19.53.28.86.28s.61-.09.85-.28c.24-.19.36-.44.36-.76s-.12-.57-.36-.75c-.24-.19-.52-.28-.85-.28Z"/>
      <rect class="cls-1" x="143.2" y="68.72" width="1.76" height="11.15"/>
      <rect class="cls-1" x="148.13" y="63.46" width="1.76" height="16.41"/>
      <rect class="cls-1" x="153" y="63.46" width="1.76" height="16.41"/>
      <path class="cls-1" d="M167.98,71.33c-.49-.86-1.16-1.54-2.02-2.03s-1.85-.74-2.97-.74-2.11.25-2.97.74-1.53,1.17-2.02,2.03c-.49.86-.73,1.85-.73,2.96s.24,2.11.73,2.98c.49.87,1.16,1.56,2.02,2.06.86.5,1.85.75,2.97.75s2.11-.25,2.97-.75c.86-.5,1.53-1.19,2.02-2.06.49-.87.73-1.86.73-2.98s-.24-2.1-.73-2.96ZM166.42,76.47c-.33.62-.79,1.11-1.38,1.45s-1.27.51-2.04.51-1.44-.17-2.03-.51c-.59-.34-1.05-.83-1.39-1.45-.33-.62-.5-1.35-.5-2.18s.17-1.56.5-2.17c.33-.61.79-1.08,1.39-1.42.59-.33,1.27-.5,2.03-.5s1.45.17,2.04.5c.59.33,1.05.81,1.38,1.42s.5,1.33.5,2.17-.17,1.56-.5,2.18Z"/>
      <path class="cls-1" d="M45.03,87.73l-4.4,10.59h1.3l1.38-3.31h3.92l1.41,3.31h1.31l-4.43-10.59h-.49ZM43.79,93.9l1.26-3.21.12-.41.1-.33.09.35.12.39,1.28,3.21h-2.97Z"/>
      <path class="cls-1" d="M58.13,92.95c-.07-.04-.16-.08-.28-.12-.11-.04-.2-.06-.26-.06.15-.05.25-.09.31-.12.81-.41,1.21-1.07,1.21-2,0-.6-.17-1.13-.49-1.59-.33-.46-.79-.8-1.37-1.02-.34-.13-.76-.2-1.26-.2h-3.39v10.42l.92.11c.45.05,1.19.08,2.22.08.74,0,1.33-.07,1.76-.21.66-.21,1.17-.57,1.53-1.09.36-.51.54-1.09.54-1.72,0-1.08-.48-1.91-1.44-2.49ZM53.84,89.02h2.35c.55.04.97.19,1.26.46.29.26.44.64.44,1.12,0,.55-.17.97-.53,1.26-.35.29-.81.44-1.38.44h-2.14v-3.27ZM57.71,96.84c-.43.32-1.04.48-1.82.48l-.97-.03-1.08-.05v-3.79h2.25c.72,0,1.28.19,1.67.56.4.37.59.85.59,1.44s-.21,1.08-.64,1.4Z"/>
      <path class="cls-1" d="M69.51,88.48c-.78-.47-1.64-.7-2.58-.7s-1.79.23-2.57.7c-.79.46-1.41,1.09-1.86,1.89s-.68,1.67-.68,2.62v.44c0,.99.22,1.88.67,2.66.44.79,1.06,1.41,1.84,1.86s1.67.69,2.66.7c.95,0,1.81-.21,2.58-.66.77-.45,1.38-1.08,1.82-1.88.44-.8.67-1.7.67-2.68v-.44c0-.95-.23-1.82-.69-2.62s-1.08-1.42-1.86-1.89ZM70.83,93.42c0,.77-.17,1.46-.51,2.08-.34.62-.81,1.11-1.4,1.46-.59.36-1.25.53-1.98.53s-1.39-.18-1.99-.53c-.59-.35-1.06-.84-1.4-1.46s-.51-1.32-.51-2.08v-.44c0-.73.17-1.41.52-2.03s.81-1.12,1.4-1.49c.59-.36,1.24-.55,1.95-.55s1.38.18,1.97.55c.59.37,1.07.86,1.42,1.49s.53,1.3.53,2.03v.44Z"/>
      <path class="cls-1" d="M79.11,94h3.54v.29c0,.55-.15,1.06-.46,1.53-.3.47-.7.84-1.19,1.11-.49.27-1,.41-1.53.41-.84,0-1.54-.18-2.11-.55-.57-.37-.99-.85-1.26-1.46-.28-.6-.41-1.27-.41-1.99s.17-1.46.52-2.12.82-1.19,1.42-1.59c.61-.4,1.27-.6,2-.6.37,0,.74.05,1.12.16.38.11.69.27.94.49s.38.48.38.79h1.12c.02-.53-.15-.97-.5-1.37-.35-.39-.8-.69-1.36-.9s-1.11-.32-1.67-.32c-1.01,0-1.91.24-2.7.72-.79.48-1.41,1.14-1.84,1.97-.44.83-.66,1.75-.66,2.74,0,.94.19,1.8.58,2.58.38.78.95,1.4,1.7,1.87s1.65.7,2.7.7c.77,0,1.49-.18,2.17-.55s1.22-.89,1.62-1.54c.4-.66.61-1.41.61-2.25v-1.26h-4.73v1.14Z"/>
      <path class="cls-1" d="M89.75,87.73l-4.39,10.59h1.3l1.38-3.31h3.92l1.41,3.31h1.3l-4.42-10.59h-.5ZM88.5,93.9l1.26-3.21.12-.41.1-.33.09.35.12.39,1.28,3.21h-2.97Z"/>
      <path class="cls-1" d="M103.81,88.72c-.72-.46-1.55-.72-2.48-.78h-4s0,10.35,0,10.35l.84.07c.69.06,1.17.09,1.44.09h1.27c1.01,0,1.91-.23,2.7-.68.79-.45,1.41-1.07,1.85-1.88.45-.8.67-1.71.67-2.73,0-.96-.2-1.83-.6-2.6s-.96-1.39-1.69-1.85ZM103.71,96.27c-.77.71-1.88,1.07-3.31,1.07-.55,0-1.17-.03-1.85-.08v-8.17h2.61c1.16.06,2.07.46,2.72,1.18.65.73.98,1.71.98,2.96,0,1.32-.38,2.33-1.16,3.04Z"/>
      <path class="cls-1" d="M116.18,88.48c-.78-.47-1.64-.7-2.58-.7s-1.79.23-2.57.7c-.79.46-1.41,1.09-1.86,1.89s-.68,1.67-.68,2.62v.44c0,.99.22,1.88.67,2.66.44.79,1.06,1.41,1.84,1.86s1.67.69,2.66.7c.95,0,1.81-.21,2.58-.66.77-.45,1.38-1.08,1.82-1.88.44-.8.67-1.7.67-2.68v-.44c0-.95-.23-1.82-.69-2.62s-1.08-1.42-1.86-1.89ZM117.5,93.42c0,.77-.17,1.46-.51,2.08s-.8,1.11-1.39,1.46c-.59.36-1.25.53-1.98.53s-1.39-.18-1.99-.53c-.59-.35-1.06-.84-1.4-1.46s-.51-1.32-.51-2.08v-.44c0-.73.17-1.41.52-2.03.34-.62.81-1.12,1.4-1.49.59-.36,1.24-.55,1.95-.55s1.38.18,1.97.55c.6.37,1.07.86,1.42,1.49.35.62.53,1.3.53,2.03v.44Z"/>
      <path class="cls-1" d="M125.34,92.55l-.54-.27c-.46-.23-.83-.43-1.12-.61s-.54-.38-.76-.62c-.22-.24-.32-.51-.32-.81,0-.37.16-.69.49-.95.32-.26.71-.4,1.15-.4.2,0,.41.04.63.13.22.09.39.2.52.35.12.14.17.3.13.46l1.17.08c.02-.12.03-.21.03-.25,0-.33-.11-.64-.34-.93-.23-.29-.53-.52-.9-.7-.38-.17-.78-.26-1.21-.26-.51,0-.99.11-1.43.32-.45.21-.8.51-1.07.9-.26.39-.4.82-.4,1.31s.14.95.41,1.31c.28.37.62.67,1.04.92.42.25,1.02.56,1.82.95.63.3,1.07.59,1.32.87.25.28.38.63.38,1.06,0,.62-.21,1.12-.64,1.51-.43.38-.96.58-1.58.58-.58,0-1.12-.18-1.63-.54-.51-.36-.85-.85-1-1.48l-1.11.46c.11.52.35.98.71,1.39.37.41.81.73,1.34.96.53.23,1.09.35,1.7.35s1.18-.14,1.71-.41c.53-.27.95-.65,1.27-1.14.31-.49.47-1.04.47-1.66s-.17-1.15-.52-1.58c-.35-.43-.91-.86-1.7-1.29Z"/>
      <path class="cls-1" d="M72.06,13.61c-2.31,2.75-3.7,6.3-3.7,10.16v23.63h1.7v-23.63c0-3.4,1.21-6.52,3.21-8.96l10.94,10.94,10.94-10.94c2,2.44,3.21,5.56,3.21,8.96v.89c0,5.05-4.11,9.15-9.15,9.15h-5.7l8.2,2.5c3.98,1.21,6.66,4.83,6.66,8.99v2.09h1.7v-2.09c0-4.7-2.88-8.8-7.24-10.41,4.21-1.49,7.24-5.52,7.24-10.23v-.89c0-3.87-1.39-7.41-3.7-10.16l2.82-2.82c1.03-1.03,1.53-2.45,1.37-3.9l-1.69.18c.1.93-.22,1.85-.88,2.51l-2.78,2.78c-2.85-2.75-6.72-4.45-10.98-4.45s-8.13,1.7-10.98,4.45l-2.78-2.78c-.66-.66-.99-1.58-.88-2.51l-1.69-.18c-.16,1.45.34,2.87,1.37,3.9l2.82,2.82ZM84.2,9.62c3.8,0,7.24,1.51,9.78,3.95l-9.78,9.78-9.78-9.78c2.54-2.44,5.99-3.95,9.78-3.95Z"/>
      <path class="cls-1" d="M111.39,0h-54.38v54.38h54.38V0ZM109.7,52.68h-50.98V1.7h50.98v50.98Z"/>
    </g>
  </g>
</svg>