<?xml version="1.0" encoding="UTF-8"?>
<svg id="Capa_2" data-name="Capa 2" xmlns="http://www.w3.org/2000/svg" viewBox="0 0 223.18 44.65">
  <defs>
    <style>
      .cls-1 {
        fill: #162542;
      }
    </style>
  </defs>
  <g id="Capa_1-2" data-name="Capa 1">
    <g>
      <path class="cls-1" d="M63.74,10.67c.31-.58.47-1.28.47-2.11,0-1.38-.37-2.4-1.11-3.08-.74-.67-1.82-1.01-3.25-1.01h-5.38v15.49h1.75v-6.62h3.31c.79,0,1.4.17,1.84.5s.65.85.65,1.53v3.31c0,.31.03.57.07.8s.1.38.15.47h1.81c-.06-.08-.12-.23-.17-.47-.05-.24-.07-.5-.07-.8v-3.53c0-.62-.12-1.12-.37-1.49s-.55-.65-.92-.82c-.37-.18-.74-.28-1.12-.31.37-.04.78-.22,1.21-.54.44-.32.81-.76,1.12-1.34ZM61.98,10.33c-.25.46-.59.81-1.02,1.07s-.89.38-1.41.38h-3.33v-5.72h3.2c.95,0,1.68.2,2.18.61.5.41.76,1.09.76,2.05,0,.62-.13,1.15-.38,1.61Z"/>
      <path class="cls-1" d="M76.98,17.8c.25-.44.38-.88.42-1.33h-1.79c-.03.25-.12.49-.26.73-.15.25-.36.47-.65.68-.28.21-.64.37-1.08.49s-.95.18-1.53.18c-.83,0-1.54-.17-2.14-.5s-1.07-.82-1.39-1.44c-.23-.44-.37-.94-.44-1.5h9.4c.01-.06.02-.19.03-.37,0-.18,0-.33,0-.44,0-1.09-.22-2.05-.67-2.9-.45-.85-1.08-1.52-1.91-2.01s-1.8-.74-2.93-.74-2.09.25-2.95.74-1.54,1.17-2.03,2.03c-.49.87-.74,1.87-.74,3.01s.24,2.12.73,2.99c.49.87,1.16,1.55,2.01,2.04.85.49,1.84.74,2.96.74.85,0,1.6-.11,2.25-.33.65-.22,1.2-.51,1.65-.87.45-.36.79-.76,1.04-1.2ZM69.99,10.77c.6-.34,1.3-.5,2.09-.5s1.44.16,1.97.48c.53.32.93.75,1.2,1.29.23.45.34.95.37,1.48h-7.47c.08-.49.22-.93.43-1.32.34-.61.8-1.09,1.41-1.42Z"/>
      <path class="cls-1" d="M86.89,15.05v4.93h1.77v-6.35c0-.35.05-.71.14-1.1.09-.38.24-.74.46-1.06.21-.33.5-.6.86-.8.36-.2.81-.3,1.35-.3s.97.09,1.28.27c.3.18.53.41.67.68.14.28.23.57.26.89s.05.61.05.88v6.9h1.79v-7.49c0-.79-.14-1.46-.42-2.03-.28-.57-.69-1.01-1.23-1.33-.54-.31-1.22-.47-2.02-.47-.86,0-1.6.22-2.23.65-.54.37-.96.86-1.28,1.44-.02-.05-.02-.1-.04-.15-.25-.6-.64-1.08-1.18-1.42-.53-.34-1.22-.52-2.07-.52s-1.6.22-2.23.66c-.39.27-.71.61-.99.99v-1.48h-1.79v11.15h1.79v-6.2c0-.39.05-.79.15-1.19.1-.4.26-.77.48-1.11s.52-.61.88-.81.81-.31,1.34-.31.94.09,1.23.27.52.41.66.7c.14.28.23.58.27.9s.06.61.06.89v1.93Z"/>
      <path class="cls-1" d="M106.52,9.39c-.83-.49-1.8-.74-2.93-.74s-2.09.25-2.95.74-1.54,1.17-2.03,2.03c-.49.87-.74,1.87-.74,3.01s.24,2.12.73,2.99c.49.87,1.16,1.55,2.01,2.04.85.49,1.84.74,2.96.74.85,0,1.6-.11,2.25-.33.65-.22,1.2-.51,1.65-.87.45-.36.79-.76,1.04-1.2s.38-.88.42-1.33h-1.79c-.03.25-.12.49-.26.73-.15.25-.36.47-.65.68-.28.21-.64.37-1.08.49s-.95.18-1.53.18c-.83,0-1.54-.17-2.14-.5s-1.07-.82-1.39-1.44c-.23-.44-.37-.94-.44-1.5h9.4c.01-.06.02-.19.03-.37,0-.18,0-.33,0-.44,0-1.09-.22-2.05-.67-2.9-.45-.85-1.08-1.52-1.91-2.01ZM101.52,10.77c.6-.34,1.3-.5,2.09-.5s1.44.16,1.97.48c.53.32.93.75,1.2,1.29.23.45.34.95.37,1.48h-7.47c.08-.49.22-.93.43-1.32.34-.61.8-1.09,1.41-1.42Z"/>
      <path class="cls-1" d="M121.62,19.97V3.56h-1.79v6.67c-.36-.38-.76-.71-1.23-.96-.75-.41-1.56-.62-2.42-.62s-1.74.22-2.5.67c-.76.44-1.38,1.09-1.84,1.95s-.69,1.89-.69,3.12.23,2.3.68,3.17c.46.86,1.06,1.52,1.83,1.96.76.45,1.6.67,2.52.67s1.75-.22,2.49-.66c.44-.26.83-.59,1.16-.96v1.41h1.79ZM119.36,16.83c-.31.51-.72.91-1.23,1.21-.51.3-1.08.45-1.71.45-.99,0-1.81-.34-2.46-1.01-.65-.68-.98-1.71-.98-3.09s.33-2.42.98-3.09c.65-.67,1.47-1,2.47-1,.6,0,1.15.15,1.67.44.52.29.94.68,1.25,1.17.32.49.48,1.04.48,1.65v1.57c0,.63-.15,1.2-.46,1.71Z"/>
      <path class="cls-1" d="M125.44,6.26c.33,0,.61-.09.85-.28.24-.19.36-.44.36-.76s-.12-.57-.36-.75c-.24-.19-.52-.28-.85-.28s-.61.09-.86.28c-.24.19-.36.44-.36.75s.12.58.36.76c.24.19.53.28.86.28Z"/>
      <rect class="cls-1" x="124.55" y="8.82" width="1.76" height="11.15"/>
      <path class="cls-1" d="M137.57,19.42c.86-.5,1.53-1.19,2.02-2.06s.73-1.86.73-2.98-.24-2.1-.73-2.96-1.16-1.54-2.02-2.03-1.85-.73-2.97-.73-2.11.24-2.97.73c-.86.49-1.53,1.17-2.02,2.03-.49.86-.73,1.85-.73,2.96s.24,2.11.73,2.98c.49.87,1.16,1.56,2.02,2.06.86.5,1.85.75,2.97.75s2.11-.25,2.97-.75ZM131.19,16.57c-.33-.62-.5-1.35-.5-2.18s.17-1.56.5-2.17c.33-.61.79-1.09,1.39-1.42s1.27-.5,2.03-.5,1.45.17,2.04.5,1.05.8,1.38,1.42c.33.61.5,1.33.5,2.17s-.17,1.56-.5,2.18-.79,1.11-1.38,1.45c-.59.34-1.27.51-2.04.51s-1.44-.17-2.03-.51c-.59-.34-1.05-.83-1.39-1.45Z"/>
      <path class="cls-1" d="M150.51,14.62c-.39-.24-.85-.45-1.37-.6-.52-.16-1.07-.29-1.65-.39-.65-.12-1.22-.25-1.7-.39-.48-.14-.85-.33-1.11-.56-.26-.23-.39-.53-.39-.91s.14-.68.42-.89.63-.37,1.06-.47c.43-.1.86-.14,1.3-.14.47,0,.91.06,1.32.19.41.13.75.33,1.01.59.26.26.39.6.39,1v.16h1.79v-.21c0-.72-.21-1.33-.62-1.82-.42-.49-.97-.87-1.65-1.13-.69-.26-1.43-.39-2.25-.39s-1.6.12-2.29.37c-.69.25-1.23.61-1.63,1.08s-.6,1.05-.6,1.73c0,.53.11.97.34,1.35.23.38.54.69.93.94.4.25.85.46,1.36.62.51.16,1.05.29,1.62.38,1.08.18,1.89.4,2.43.65.54.25.81.66.81,1.24,0,.35-.13.64-.38.87s-.6.4-1.04.51c-.44.11-.94.17-1.5.17-.91,0-1.63-.15-2.15-.45-.52-.3-.79-.73-.79-1.3v-.23h-1.79v.32c0,.53.12.99.35,1.4.23.41.56.75.99,1.03.42.28.92.49,1.49.63s1.19.21,1.86.21,1.25-.07,1.82-.21c.57-.13,1.07-.34,1.51-.61s.78-.61,1.03-1.02c.25-.4.37-.88.37-1.43s-.12-.99-.34-1.37c-.23-.38-.54-.69-.94-.93Z"/>
      <polygon class="cls-1" points="166.12 18.49 162.33 4.48 159.24 4.48 159.24 19.97 160.94 19.97 160.94 6.11 164.85 19.97 167.42 19.97 171.31 6.11 171.31 19.97 173.01 19.97 173.01 4.48 169.93 4.48 166.12 18.49"/>
      <path class="cls-1" d="M184.21,9.4c-.86-.49-1.85-.73-2.97-.73s-2.11.24-2.96.73-1.53,1.17-2.02,2.03c-.49.86-.73,1.85-.73,2.96s.24,2.11.73,2.98c.49.87,1.16,1.56,2.02,2.06.86.5,1.85.75,2.96.75s2.11-.25,2.97-.75c.86-.5,1.53-1.19,2.02-2.06s.73-1.86.73-2.98-.24-2.1-.73-2.96-1.16-1.54-2.02-2.03ZM184.66,16.57c-.33.62-.79,1.11-1.38,1.45-.59.34-1.27.51-2.04.51s-1.44-.17-2.03-.51c-.59-.34-1.05-.83-1.38-1.45-.33-.62-.5-1.35-.5-2.18s.17-1.56.5-2.17c.33-.61.79-1.09,1.38-1.42s1.27-.5,2.03-.5,1.45.17,2.04.5,1.05.8,1.38,1.42c.33.61.5,1.33.5,2.17s-.17,1.56-.5,2.18Z"/>
      <path class="cls-1" d="M194.33,8.65c-.6,0-1.13.1-1.58.29-.45.19-.82.45-1.12.78-.16.18-.3.37-.43.57v-1.47h-1.79v11.15h1.79v-6.1c0-.4.04-.8.14-1.21s.25-.78.47-1.13c.22-.35.52-.62.9-.83.38-.21.86-.32,1.44-.32.39,0,.7.04.91.12.21.08.36.14.43.19l.46-1.75c-.07-.04-.25-.1-.53-.17s-.65-.11-1.1-.11Z"/>
      <path class="cls-1" d="M198.56,4.19c-.33,0-.61.09-.86.28s-.36.44-.36.75.12.58.36.76.53.28.86.28.61-.09.85-.28c.24-.19.36-.44.36-.76s-.12-.57-.36-.75c-.24-.19-.52-.28-.85-.28Z"/>
      <rect class="cls-1" x="197.67" y="8.82" width="1.76" height="11.15"/>
      <rect class="cls-1" x="202.6" y="3.56" width="1.76" height="16.41"/>
      <rect class="cls-1" x="207.47" y="3.56" width="1.77" height="16.41"/>
      <path class="cls-1" d="M222.45,11.42c-.49-.86-1.16-1.54-2.02-2.03s-1.85-.73-2.97-.73-2.11.24-2.97.73-1.53,1.17-2.02,2.03-.73,1.85-.73,2.96.24,2.11.73,2.98,1.16,1.56,2.02,2.06c.86.5,1.85.75,2.97.75s2.11-.25,2.97-.75c.86-.5,1.53-1.19,2.02-2.06s.73-1.86.73-2.98-.24-2.1-.73-2.96ZM220.89,16.57c-.33.62-.79,1.11-1.38,1.45-.59.34-1.27.51-2.04.51s-1.44-.17-2.03-.51c-.59-.34-1.05-.83-1.39-1.45s-.5-1.35-.5-2.18.17-1.56.5-2.17c.33-.61.79-1.09,1.39-1.42.59-.33,1.27-.5,2.03-.5s1.45.17,2.04.5,1.05.8,1.38,1.42c.33.61.5,1.33.5,2.17s-.17,1.56-.5,2.18Z"/>
      <path class="cls-1" d="M57.83,27.83l-4.39,10.59h1.3l1.38-3.31h3.92l1.41,3.31h1.3l-4.42-10.59h-.5ZM56.59,34l1.26-3.21.12-.41.11-.33.09.35.12.39,1.27,3.21h-2.97Z"/>
      <path class="cls-1" d="M70.93,33.05c-.07-.04-.16-.08-.28-.12s-.2-.06-.26-.06c.15-.05.25-.09.32-.12.81-.41,1.21-1.07,1.21-2,0-.6-.17-1.13-.5-1.59s-.79-.8-1.37-1.02c-.34-.13-.76-.2-1.26-.2h-3.39v10.42l.92.11c.45.05,1.19.08,2.22.08.74,0,1.33-.07,1.75-.21.66-.21,1.17-.57,1.53-1.09.36-.51.54-1.09.54-1.72,0-1.08-.48-1.91-1.44-2.49ZM66.64,29.12h2.36c.55.04.97.19,1.26.46.29.26.43.64.43,1.12,0,.55-.17.97-.52,1.26-.35.29-.81.44-1.38.44h-2.15v-3.27ZM70.51,36.94c-.43.32-1.04.48-1.81.48l-.98-.03-1.08-.05v-3.79h2.25c.72,0,1.28.19,1.67.56.39.37.59.85.59,1.44s-.22,1.08-.65,1.4Z"/>
      <path class="cls-1" d="M82.31,28.58c-.78-.47-1.64-.7-2.58-.7s-1.79.23-2.57.7c-.79.46-1.4,1.09-1.86,1.89s-.68,1.67-.68,2.62v.44c0,.99.22,1.88.67,2.66.45.79,1.06,1.41,1.85,1.86.78.46,1.67.69,2.66.7.95,0,1.81-.21,2.58-.66.77-.45,1.38-1.08,1.82-1.88.45-.8.67-1.7.67-2.68v-.44c0-.95-.23-1.82-.69-2.62s-1.08-1.42-1.86-1.89ZM83.63,33.52c0,.77-.17,1.46-.51,2.08s-.8,1.11-1.39,1.46c-.59.36-1.25.53-1.98.53s-1.39-.18-1.99-.53c-.6-.35-1.06-.84-1.4-1.46-.34-.62-.51-1.32-.51-2.08v-.44c0-.73.17-1.41.52-2.03.35-.62.81-1.12,1.4-1.49.59-.36,1.24-.55,1.95-.55s1.38.18,1.97.55c.59.37,1.07.86,1.42,1.49.35.62.52,1.3.52,2.03v.44Z"/>
      <path class="cls-1" d="M91.91,34.1h3.54v.29c0,.55-.15,1.06-.46,1.53-.3.47-.7.84-1.19,1.11-.49.27-1,.41-1.53.41-.84,0-1.54-.18-2.11-.55-.56-.37-.98-.85-1.26-1.46-.28-.6-.41-1.27-.41-1.99s.17-1.46.52-2.12c.34-.66.82-1.19,1.42-1.59.6-.4,1.27-.6,2-.6.37,0,.74.05,1.12.16.38.11.69.27.94.49s.38.48.38.79h1.12c.02-.53-.15-.97-.5-1.37-.35-.39-.8-.69-1.36-.9-.56-.21-1.11-.32-1.67-.32-1.01,0-1.91.24-2.7.72-.79.48-1.4,1.14-1.84,1.97s-.66,1.75-.66,2.74c0,.94.19,1.8.58,2.58.38.78.95,1.4,1.7,1.87s1.65.7,2.7.7c.77,0,1.49-.18,2.17-.55s1.22-.89,1.62-1.54c.4-.66.61-1.41.61-2.25v-1.26h-4.72v1.14Z"/>
      <path class="cls-1" d="M102.55,27.83l-4.39,10.59h1.3l1.38-3.31h3.92l1.41,3.31h1.3l-4.42-10.59h-.5ZM101.3,34l1.26-3.21.12-.41.1-.33.09.35.12.39,1.28,3.21h-2.97Z"/>
      <path class="cls-1" d="M116.61,28.82c-.72-.46-1.55-.72-2.48-.78h-4s0,10.35,0,10.35l.84.07c.69.06,1.17.09,1.44.09h1.27c1.01,0,1.91-.23,2.7-.68.79-.45,1.41-1.07,1.85-1.88.45-.8.67-1.71.67-2.73,0-.96-.2-1.83-.6-2.6s-.96-1.39-1.69-1.85ZM116.51,36.37c-.77.71-1.88,1.07-3.31,1.07-.55,0-1.17-.03-1.85-.08v-8.17h2.61c1.16.06,2.07.46,2.72,1.18.65.73.98,1.71.98,2.96,0,1.32-.38,2.33-1.16,3.04Z"/>
      <path class="cls-1" d="M128.98,28.58c-.78-.47-1.64-.7-2.58-.7s-1.79.23-2.57.7c-.79.46-1.41,1.09-1.86,1.89s-.68,1.67-.68,2.62v.44c0,.99.22,1.88.67,2.66.44.79,1.06,1.41,1.84,1.86s1.67.69,2.66.7c.95,0,1.81-.21,2.58-.66.77-.45,1.38-1.08,1.82-1.88.44-.8.67-1.7.67-2.68v-.44c0-.95-.23-1.82-.69-2.62s-1.08-1.42-1.86-1.89ZM130.3,33.52c0,.77-.17,1.46-.51,2.08s-.8,1.11-1.39,1.46c-.59.36-1.25.53-1.98.53s-1.39-.18-1.99-.53c-.59-.35-1.06-.84-1.4-1.46s-.51-1.32-.51-2.08v-.44c0-.73.17-1.41.52-2.03.34-.62.81-1.12,1.4-1.49.59-.36,1.24-.55,1.95-.55s1.38.18,1.97.55c.6.37,1.07.86,1.42,1.49.35.62.53,1.3.53,2.03v.44Z"/>
      <path class="cls-1" d="M138.14,32.65l-.54-.27c-.46-.23-.83-.43-1.12-.61s-.54-.38-.76-.62c-.22-.24-.32-.51-.32-.81,0-.37.16-.69.49-.95.32-.26.71-.4,1.15-.4.2,0,.41.04.63.13.22.09.39.2.52.35.12.14.17.3.13.46l1.17.08c.02-.12.03-.21.03-.25,0-.33-.11-.64-.34-.93-.23-.29-.53-.52-.9-.7-.38-.17-.78-.26-1.21-.26-.51,0-.99.11-1.43.32-.45.21-.8.51-1.07.9-.26.39-.4.82-.4,1.31s.14.95.41,1.31c.28.37.62.67,1.04.92.42.25,1.02.56,1.82.95.63.3,1.07.59,1.32.87.25.28.38.63.38,1.06,0,.62-.21,1.12-.64,1.51-.43.38-.96.58-1.58.58-.58,0-1.12-.18-1.63-.54-.51-.36-.85-.85-1-1.48l-1.11.46c.11.52.35.98.71,1.39.37.41.81.73,1.34.96.53.23,1.09.35,1.7.35s1.18-.14,1.71-.41c.53-.27.95-.65,1.27-1.14.31-.49.47-1.04.47-1.66s-.17-1.15-.52-1.58c-.35-.43-.91-.86-1.7-1.29Z"/>
      <path class="cls-1" d="M35.76,5.69l-1.49.16c.08.75-.18,1.48-.71,2.01l-2.24,2.24c-2.34-2.24-5.51-3.62-8.99-3.62s-6.65,1.38-8.99,3.62l-2.24-2.24c-.53-.53-.79-1.27-.71-2.01l-1.49-.16c-.13,1.2.29,2.38,1.14,3.23l2.27,2.27c-1.88,2.26-3.01,5.16-3.01,8.32v19.35h1.5v-19.35c0-2.75.97-5.27,2.58-7.26l8.96,8.96,8.96-8.96c1.61,1.98,2.58,4.51,2.58,7.26v.73c0,4.1-3.34,7.44-7.44,7.44h-5.03l7.05,2.15c3.24.99,5.42,3.93,5.42,7.31v1.72h1.5v-1.72c0-3.82-2.32-7.17-5.83-8.52,3.4-1.27,5.83-4.55,5.83-8.38v-.73c0-3.16-1.13-6.06-3.01-8.32l2.27-2.27c.85-.85,1.27-2.03,1.14-3.23ZM22.32,19.11l-7.93-7.93c2.07-1.97,4.86-3.18,7.93-3.18s5.86,1.22,7.93,3.18l-7.93,7.93Z"/>
      <path class="cls-1" d="M0,44.65h44.65V0H0v44.65ZM1.5,1.5h41.65v41.65H1.5V1.5Z"/>
    </g>
  </g>
</svg>