<svg xmlns="http://www.w3.org/2000/svg" id="Capa_2" data-name="Capa 2" viewBox="0 0 208.24 189.33"><defs><style>      .cls-1 {        fill: none;        stroke: #51525f;        stroke-linecap: round;        stroke-linejoin: round;        stroke-width: 4px;      }    </style></defs><g id="Capa_1-2" data-name="Capa 1"><g><g><g><path class="cls-1" d="M194.98,154.37v20.07c0,7.11-18.19,12.89-40.62,12.89s-40.62-5.77-40.62-12.89v-20.07c0,4.06,5.92,7.68,15.17,10.04,6.96,1.78,15.81,2.84,25.44,2.84s18.48-1.06,25.44-2.84c9.25-2.36,15.17-5.98,15.17-10.04Z"></path><path class="cls-1" d="M194.98,134.29v20.07c0,4.06-5.92,7.68-15.17,10.04-6.97,1.78-15.81,2.84-25.44,2.84s-18.48-1.06-25.44-2.84c-9.25-2.36-15.17-5.98-15.17-10.04v-20.07c0,4.06,5.91,7.67,15.16,10.04h0c6.96,1.78,15.82,2.84,25.45,2.84s18.48-1.06,25.45-2.84h0c9.25-2.36,15.16-5.98,15.16-10.04Z"></path><path class="cls-1" d="M194.98,114.21v20.08c0,4.06-5.91,7.67-15.16,10.04h0c-6.97,1.78-15.82,2.84-25.45,2.84s-18.49-1.06-25.45-2.84h0c-9.25-2.36-15.16-5.98-15.16-10.04v-20.08c0,4.06,5.91,7.68,15.16,10.04h0c6.96,1.78,15.82,2.84,25.45,2.84s18.48-1.06,25.45-2.84h0c9.25-2.36,15.16-5.98,15.16-10.04Z"></path><path class="cls-1" d="M194.98,114.21c0,4.06-5.91,7.68-15.16,10.04h0c-6.97,1.78-15.82,2.84-25.45,2.84s-18.49-1.06-25.45-2.84h0c-9.25-2.36-15.16-5.98-15.16-10.04,0-7.11,18.18-12.88,40.62-12.88s40.62,5.77,40.62,12.88Z"></path></g><g><path class="cls-1" d="M94.5,143.41c0,4.06-5.92,7.68-15.17,10.04-6.97,1.78-15.81,2.84-25.44,2.84s-18.48-1.06-25.44-2.84c-9.25-2.36-15.17-5.98-15.17-10.04,0-7.11,18.19-12.89,40.62-12.89s40.62,5.77,40.62,12.89Z"></path><path class="cls-1" d="M94.5,143.41v20.07c0,7.11-18.19,12.89-40.62,12.89s-40.62-5.77-40.62-12.89v-20.07c0,4.06,5.92,7.68,15.17,10.04,6.97,1.78,15.81,2.84,25.44,2.84s18.48-1.06,25.44-2.84c9.25-2.36,15.17-5.98,15.17-10.04Z"></path></g></g><polyline class="cls-1" points="158.48 89.95 190.28 58.15 206.24 74.12 195.83 12.41 134.12 2 150.09 17.97 100.42 67.63 42.19 9.39 2 49.58 73.21 120.79"></polyline></g></g></svg>