<svg xmlns="http://www.w3.org/2000/svg" id="Capa_2" data-name="Capa 2" viewBox="0 0 229.83 223.96"><defs><style>      .cls-1 {        fill: none;        stroke: #51525f;        stroke-linecap: round;        stroke-linejoin: round;        stroke-width: 4px;      }      .cls-2 {        fill: #51525f;      }    </style></defs><g id="Capa_1-2" data-name="Capa 1"><g><g><polyline class="cls-1" points="181.1 146.49 181.1 221.96 23.5 221.96 23.5 24.3 181.1 24.3 181.1 62.23"></polyline><polyline class="cls-1" points="23.5 199.67 2 199.67 2 2 159.59 2 159.59 24.3"></polyline></g><path class="cls-2" d="M56.65,130.68c1.71-1.4,3.84-2.1,6.38-2.1,1.77,0,3.23.31,4.36.93,1.13.62,2.05,1.38,2.76,2.29.71.91,1.28,1.8,1.73,2.68l3.4-2.63c-.53-1.05-1.3-2.14-2.29-3.27-1-1.13-2.3-2.09-3.91-2.88s-3.64-1.19-6.07-1.19c-5.36,0-9.41,2.01-12.14,6.03-1.88,2.78-3.1,6.58-3.68,11.35h-4.54v3.46h4.23c-.06,1.11-.1,2.26-.1,3.46s.04,2.28.09,3.37h-4.23v3.46h4.53c.58,4.78,1.8,8.54,3.69,11.25,2.72,3.89,6.77,5.83,12.14,5.83,2.33,0,4.28-.36,5.85-1.07s2.85-1.61,3.83-2.68c.99-1.07,1.74-2.12,2.28-3.14l-3.4-2.63c-.45.88-1.03,1.74-1.75,2.58-.72.84-1.62,1.54-2.71,2.08s-2.45.82-4.07.82c-2.54,0-4.67-.67-6.38-2-1.71-1.33-2.99-3.47-3.83-6.39-.39-1.35-.68-2.91-.89-4.65h13.02v-3.46h-13.32c-.05-1.07-.08-2.19-.08-3.37s.03-2.36.09-3.46h13.31v-3.46h-13.01c.21-1.72.49-3.28.88-4.63.84-2.98,2.12-5.17,3.83-6.57Z"></path><line class="cls-1" x1="46.38" y1="54.43" x2="152.22" y2="54.43"></line><line class="cls-1" x1="97.37" y1="193.21" x2="155.22" y2="193.21"></line><line class="cls-1" x1="55.34" y1="76.7" x2="161.18" y2="76.7"></line><line class="cls-1" x1="45.38" y1="98.98" x2="151.22" y2="98.98"></line><g><path class="cls-1" d="M185.72,23.45h0c6.97,0,12.64,5.66,12.64,12.64v124.53h-25.27V36.08c0-6.97,5.66-12.64,12.64-12.64Z" transform="translate(76.34 -84.03) rotate(31.79)"></path><polygon class="cls-1" points="134.36 174.9 160.34 156.99 138.84 143.67 134.36 174.9"></polygon><line class="cls-1" x1="208.68" y1="62.64" x2="170.34" y2="124.51"></line></g></g></g></svg>