<svg xmlns="http://www.w3.org/2000/svg" id="Capa_2" data-name="Capa 2" viewBox="0 0 206.3 182.13"><defs><style>      .cls-1 {        fill: none;        stroke: #51525f;        stroke-linecap: round;        stroke-linejoin: round;        stroke-width: 4px;      }    </style></defs><g id="Capa_1-2" data-name="Capa 1"><g><polyline class="cls-1" points="158.08 180.13 24.92 180.13 24.92 79.51"></polyline><line class="cls-1" x1="158.08" y1="79.51" x2="158.08" y2="87.53"></line><polyline class="cls-1" points="134.9 79.51 180.99 79.51 91.5 2 61.09 28.34 61.09 13.1 32.09 13.1 32.09 53.44 2 79.51 48.09 79.51"></polyline><circle class="cls-1" cx="158.08" cy="133.75" r="46.22"></circle><g><path class="cls-1" d="M177.95,116.55c-3.97-8.14-14.02-11.34-22.02-6.79-6.63,3.77-9.64,11.94-7.01,19.1s9.53,11.02,16.45,10.31l10.67,21.9c.16.33.41.6.72.79l5.59,3.32c1.15.69,2.63-.03,2.8-1.36l.83-6.45c.05-.36-.01-.73-.17-1.05l-10.67-21.9c4.46-4.64,5.8-11.74,2.81-17.86Z"></path><path class="cls-1" d="M145.64,110.56c-8.61,1.39-14.46,9.49-13.07,18.1,1.09,6.72,6.27,11.76,12.58,12.98l3.88,24.05c.06.36.22.69.47.96l4.39,4.8c.91.99,2.53.73,3.08-.5l2.66-5.93c.15-.33.2-.7.14-1.06l-2.91-18.03"></path><path class="cls-1" d="M138.12,108.2c1.26-6.01,6.31-10.75,12.74-11.35,7.91-.73,14.91,5.08,15.64,12.99.36,3.91-.88,7.61-3.19,10.43"></path></g></g></g></svg>