<svg xmlns="http://www.w3.org/2000/svg" id="Capa_2" data-name="Capa 2" viewBox="0 0 239.32 196.77"><defs><style>      .cls-1 {        fill: none;        stroke: #51525f;        stroke-linecap: round;        stroke-linejoin: round;        stroke-width: 4px;      }    </style></defs><g id="Capa_1-2" data-name="Capa 1"><g><polyline class="cls-1" points="95.32 180.13 24.92 180.13 24.92 79.51"></polyline><line class="cls-1" x1="158.08" y1="79.51" x2="158.08" y2="85.29"></line><polyline class="cls-1" points="134.9 79.51 180.99 79.51 91.5 2 61.09 28.34 61.09 13.1 32.09 13.1 32.09 53.44 2 79.51 48.09 79.51"></polyline><g><rect class="cls-1" x="103.08" y="179.36" width="68.18" height="15.41"></rect><rect class="cls-1" x="111.63" y="163.94" width="51.09" height="15.41"></rect><g><rect class="cls-1" x="146.42" y="112.16" width="41.35" height="21.32" transform="translate(-24.28 202.69) rotate(-58.97)"></rect><rect class="cls-1" x="149.61" y="127.81" width="9" height="33.17" transform="translate(-49.06 202.02) rotate(-58.97)"></rect><rect class="cls-1" x="175.58" y="119.96" width="9" height="21.36" transform="translate(93.1 -74.13) rotate(31.03)"></rect><rect class="cls-1" x="175.57" y="84.67" width="9" height="33.17" transform="translate(.49 203.36) rotate(-58.97)"></rect><path class="cls-1" d="M186.77,128.24l-5.67,9.43,41.55,29.4c4.41,3.12,10.55,1.84,13.34-2.8h0c2.79-4.63,1.05-10.66-3.78-13.1l-45.44-22.93Z"></path></g></g></g></g></svg>