<svg xmlns="http://www.w3.org/2000/svg" id="Capa_2" data-name="Capa 2" viewBox="0 0 229.82 223.96"><defs><style>      .cls-1 {        fill: none;        stroke: #51525f;        stroke-linecap: round;        stroke-linejoin: round;        stroke-width: 4px;      }      .cls-2 {        fill: #51525f;      }    </style></defs><g id="Capa_1-2" data-name="Capa 1"><g><g><polyline class="cls-1" points="181.1 213.71 181.1 221.96 23.5 221.96 23.5 24.3 181.1 24.3 181.1 121.26"></polyline><polyline class="cls-1" points="23.5 199.67 2 199.67 2 2 159.59 2 159.59 24.3"></polyline></g><line class="cls-1" x1="46.38" y1="54.43" x2="152.22" y2="54.43"></line><line class="cls-1" x1="55.34" y1="76.7" x2="161.18" y2="76.7"></line><line class="cls-1" x1="45.38" y1="98.98" x2="151.22" y2="98.98"></line><line class="cls-1" x1="55.34" y1="121.26" x2="161.18" y2="121.26"></line><line class="cls-1" x1="45.38" y1="143.54" x2="142.05" y2="143.54"></line><g><circle class="cls-1" cx="181.6" cy="167.48" r="46.22"></circle><path class="cls-2" d="M192.27,184.36c-.71.83-1.59,1.51-2.66,2.05s-2.41.8-4.01.8c-2.5,0-4.59-.66-6.27-1.97-1.68-1.31-2.94-3.41-3.77-6.29-.38-1.33-.67-2.87-.87-4.57h12.8v-3.4h-13.1c-.05-1.05-.08-2.15-.08-3.31s.03-2.33.08-3.41h13.09v-3.4h-12.79c.21-1.69.49-3.22.86-4.55.83-2.93,2.08-5.09,3.77-6.46,1.68-1.38,3.77-2.06,6.27-2.06,1.74,0,3.17.3,4.29.91,1.11.61,2.02,1.36,2.71,2.25.69.89,1.26,1.77,1.7,2.63l3.34-2.59c-.52-1.03-1.28-2.1-2.25-3.21-.98-1.11-2.26-2.06-3.85-2.84s-3.58-1.17-5.97-1.17c-5.28,0-9.25,1.98-11.93,5.93-1.85,2.73-3.05,6.47-3.62,11.16h-4.46v3.4h4.16c-.06,1.1-.1,2.22-.1,3.41s.04,2.25.09,3.31h-4.16v3.4h4.45c.57,4.7,1.77,8.4,3.63,11.06,2.68,3.83,6.66,5.74,11.93,5.74,2.29,0,4.21-.35,5.75-1.06s2.8-1.58,3.77-2.63c.97-1.05,1.71-2.08,2.24-3.09l-3.34-2.59c-.44.86-1.01,1.71-1.72,2.54Z"></path></g><path class="cls-1" d="M42.25,188.58s18.9-16.24,30.03-15.72c10.91.5,4.43,20.45,15.37,20.62,7.46.11,14.66-17.92,14.66-17.92"></path></g></g></svg>