<svg xmlns="http://www.w3.org/2000/svg" id="Capa_2" data-name="Capa 2" viewBox="0 0 203.93 223.82"><defs><style>      .cls-1 {        fill: none;        stroke: #51525f;        stroke-linecap: round;        stroke-linejoin: round;        stroke-width: 4px;      }      .cls-2 {        fill: #51525f;      }    </style></defs><g id="Capa_1-2" data-name="Capa 1"><g><polyline class="cls-1" points="87.7 24.16 201.93 24.16 201.93 221.82 44.33 221.82 44.33 94.28"></polyline><g><path class="cls-2" d="M169.99,89.53c-.51.6-1.15,1.09-1.92,1.47s-1.73.58-2.88.58c-1.8,0-3.31-.47-4.52-1.42-1.21-.95-2.11-2.46-2.71-4.53-.28-.96-.48-2.06-.63-3.29h9.22v-2.45h-9.43c-.04-.76-.06-1.55-.06-2.38s.02-1.67.06-2.45h9.43v-2.45h-9.21c.15-1.22.35-2.32.62-3.28.6-2.11,1.5-3.66,2.71-4.65,1.21-.99,2.72-1.49,4.52-1.49,1.26,0,2.28.22,3.09.66.8.44,1.45.98,1.95,1.62.5.64.91,1.28,1.23,1.9l2.41-1.86c-.38-.74-.92-1.51-1.62-2.32-.7-.8-1.63-1.48-2.77-2.04s-2.58-.84-4.3-.84c-3.8,0-6.67,1.42-8.6,4.27-1.33,1.97-2.2,4.66-2.61,8.04h-3.21v2.45h3c-.04.79-.07,1.6-.07,2.45s.03,1.62.07,2.38h-2.99v2.45h3.21c.41,3.38,1.27,6.05,2.61,7.97,1.93,2.75,4.8,4.13,8.6,4.13,1.65,0,3.03-.25,4.14-.76s2.02-1.14,2.71-1.9c.7-.76,1.23-1.5,1.61-2.22l-2.41-1.86c-.32.62-.73,1.23-1.24,1.83Z"></path><path class="cls-2" d="M132.05,64.67c1.21-.99,2.72-1.49,4.52-1.49,1.26,0,2.28.22,3.09.66.8.44,1.45.98,1.95,1.62.5.64.91,1.28,1.23,1.9l2.41-1.86c-.38-.74-.92-1.51-1.62-2.32-.7-.8-1.63-1.48-2.77-2.04s-2.58-.84-4.3-.84c-3.8,0-6.67,1.42-8.6,4.27-1.33,1.97-2.2,4.66-2.61,8.04h-3.21v2.45h3c-.04.79-.07,1.6-.07,2.45s.03,1.62.07,2.38h-2.99v2.45h3.21c.41,3.38,1.27,6.05,2.61,7.97,1.93,2.75,4.8,4.13,8.6,4.13,1.65,0,3.03-.25,4.14-.76s2.02-1.14,2.71-1.9c.7-.76,1.23-1.5,1.61-2.22l-2.41-1.86c-.32.62-.73,1.23-1.24,1.83-.51.6-1.15,1.09-1.92,1.47s-1.73.58-2.88.58c-1.8,0-3.31-.47-4.52-1.42-1.21-.95-2.11-2.46-2.71-4.53-.28-.96-.48-2.06-.63-3.29h9.22v-2.45h-9.43c-.04-.76-.06-1.55-.06-2.38s.02-1.67.06-2.45h9.43v-2.45h-9.21c.15-1.22.35-2.32.62-3.28.6-2.11,1.5-3.66,2.71-4.65Z"></path><path class="cls-2" d="M103.44,64.67c1.21-.99,2.72-1.49,4.52-1.49,1.26,0,2.28.22,3.09.66.8.44,1.45.98,1.95,1.62.5.64.91,1.28,1.23,1.9l2.41-1.86c-.38-.74-.92-1.51-1.62-2.32-.7-.8-1.63-1.48-2.77-2.04s-2.58-.84-4.3-.84c-3.8,0-6.67,1.42-8.6,4.27-1.33,1.97-2.2,4.66-2.61,8.04h-3.21v2.45h3c-.04.79-.07,1.6-.07,2.45s.03,1.62.07,2.38h-2.99v2.45h3.21c.41,3.38,1.27,6.05,2.61,7.97,1.93,2.75,4.8,4.13,8.6,4.13,1.65,0,3.03-.25,4.14-.76s2.02-1.14,2.71-1.9c.7-.76,1.23-1.5,1.61-2.22l-2.41-1.86c-.32.62-.73,1.23-1.24,1.83-.51.6-1.15,1.09-1.92,1.47s-1.73.58-2.88.58c-1.8,0-3.31-.47-4.52-1.42-1.21-.95-2.11-2.46-2.71-4.53-.28-.96-.48-2.06-.63-3.29h9.22v-2.45h-9.43c-.04-.76-.06-1.55-.06-2.38s.02-1.67.06-2.45h9.43v-2.45h-9.21c.15-1.22.35-2.32.62-3.28.6-2.11,1.5-3.66,2.71-4.65Z"></path></g><polyline class="cls-1" points="94.41 50.03 181.68 50.03 181.68 101.29 64.58 101.29 64.58 91.46"></polyline><rect class="cls-1" x="64.58" y="119.53" width="29.86" height="16.81"></rect><rect class="cls-1" x="108.2" y="119.53" width="29.86" height="16.81"></rect><rect class="cls-1" x="151.81" y="119.53" width="29.86" height="16.81"></rect><rect class="cls-1" x="64.58" y="151.51" width="29.86" height="16.81"></rect><rect class="cls-1" x="108.2" y="151.51" width="29.86" height="16.81"></rect><rect class="cls-1" x="151.81" y="151.51" width="29.86" height="48.78"></rect><rect class="cls-1" x="64.58" y="183.48" width="29.86" height="16.81"></rect><rect class="cls-1" x="108.2" y="183.48" width="29.86" height="16.81"></rect><g><circle class="cls-1" cx="48.22" cy="48.22" r="46.22"></circle><g><line class="cls-1" x1="72.8" y1="23.65" x2="23.65" y2="72.8"></line><line class="cls-1" x1="23.65" y1="23.65" x2="72.8" y2="72.8"></line></g></g></g></g></svg>