<svg xmlns="http://www.w3.org/2000/svg" id="Capa_2" data-name="Capa 2" viewBox="0 0 206.3 182.13"><defs><style>      .cls-1 {        fill: none;        stroke: #51525f;        stroke-linecap: round;        stroke-linejoin: round;        stroke-width: 4px;      }    </style></defs><g id="Capa_1-2" data-name="Capa 1"><g><polyline class="cls-1" points="158.08 180.13 24.92 180.13 24.92 79.51"></polyline><line class="cls-1" x1="158.08" y1="79.51" x2="158.08" y2="87.53"></line><polyline class="cls-1" points="134.9 79.51 180.99 79.51 91.5 2 61.09 28.34 61.09 13.1 32.09 13.1 32.09 53.44 2 79.51 48.09 79.51"></polyline><circle class="cls-1" cx="158.08" cy="133.75" r="46.22"></circle><g><rect class="cls-1" x="136.13" y="125.05" width="43.89" height="37.84"></rect><path class="cls-1" d="M140.39,125.05v-6.75c0-9.73,7.96-17.68,17.68-17.68h0c9.73,0,17.68,7.96,17.68,17.68v6.75"></path><path class="cls-1" d="M165.87,139.28c0-4.31-3.49-7.8-7.8-7.8s-7.8,3.49-7.8,7.8c0,2.9,1.59,5.43,3.94,6.77v10.41h7.71v-10.41c2.35-1.34,3.94-3.87,3.94-6.77Z"></path></g></g></g></svg>