<svg xmlns="http://www.w3.org/2000/svg" id="Capa_2" data-name="Capa 2" viewBox="0 0 252.8 160.25"><defs><style>      .cls-1 {        fill: none;        stroke: #51525f;        stroke-linecap: round;        stroke-linejoin: round;        stroke-width: 4px;      }    </style></defs><g id="Capa_1-2" data-name="Capa 1"><g><rect class="cls-1" x="29.94" y="29.94" width="220.86" height="128.31" rx="7" ry="7"></rect><path class="cls-1" d="M29.94,130.31H9c-3.87,0-7-3.13-7-7V9c0-3.87,3.13-7,7-7h206.86c3.87,0,7,3.13,7,7v20.94"></path><line class="cls-1" x1="30.44" y1="53.7" x2="250.3" y2="53.7"></line><line class="cls-1" x1="30.44" y1="84.06" x2="250.3" y2="84.06"></line><g><line class="cls-1" x1="47.57" y1="108.27" x2="118.85" y2="108.27"></line><line class="cls-1" x1="82.26" y1="126.29" x2="159.09" y2="126.29"></line></g><path class="cls-1" d="M215.17,101.01c-2.97,0-5.74.81-8.13,2.19-2.39-1.39-5.17-2.19-8.13-2.19-8.98,0-16.27,7.28-16.27,16.27s7.28,16.27,16.27,16.27c2.97,0,5.74-.81,8.13-2.19,2.39,1.39,5.17,2.19,8.13,2.19,8.98,0,16.27-7.28,16.27-16.27s-7.28-16.27-16.27-16.27Z"></path></g></g></svg>